<?xml version="1.0" encoding="UTF-8" standalone="no"?>
<svg
   xmlns:dc="http://purl.org/dc/elements/1.1/"
   xmlns:cc="http://creativecommons.org/ns#"
   xmlns:rdf="http://www.w3.org/1999/02/22-rdf-syntax-ns#"
   xmlns:svg="http://www.w3.org/2000/svg"
   xmlns="http://www.w3.org/2000/svg"
   xmlns:sodipodi="http://sodipodi.sourceforge.net/DTD/sodipodi-0.dtd"
   xmlns:inkscape="http://www.inkscape.org/namespaces/inkscape"
   version="1.1"
   id="svg511"
   width="200"
   height="200"
   viewBox="0 0 200 200"
   sodipodi:docname="asusctltray_inv.svg"
   inkscape:version="1.0.1 (3bc2e813f5, 2020-09-07)"
   inkscape:export-filename="/home/leo/Dev/Python/asusctltray/asusctltray_inv.png"
   inkscape:export-xdpi="122.88"
   inkscape:export-ydpi="122.88">
  <metadata
     id="metadata517">
    <rdf:RDF>
      <cc:Work
         rdf:about="">
        <dc:format>image/svg+xml</dc:format>
        <dc:type
           rdf:resource="http://purl.org/dc/dcmitype/StillImage" />
        <dc:title></dc:title>
      </cc:Work>
    </rdf:RDF>
  </metadata>
  <defs
     id="defs515" />
  <sodipodi:namedview
     pagecolor="#ffffff"
     bordercolor="#666666"
     borderopacity="1"
     objecttolerance="10"
     gridtolerance="10"
     guidetolerance="10"
     inkscape:pageopacity="0"
     inkscape:pageshadow="2"
     inkscape:window-width="1920"
     inkscape:window-height="1052"
     id="namedview513"
     showgrid="false"
     inkscape:zoom="2.1617992"
     inkscape:cx="213.47416"
     inkscape:cy="114.53873"
     inkscape:window-x="1920"
     inkscape:window-y="0"
     inkscape:window-maximized="1"
     inkscape:current-layer="g519"
     inkscape:snap-page="true"
     inkscape:snap-bbox="true"
     inkscape:bbox-nodes="true" />
  <g
     inkscape:groupmode="layer"
     inkscape:label="Image"
     id="g519">
    <path
       id="path561"
       style="fill:#f6f5f4;stroke-width:9.42429"
       d="M 100 0 A 100 100 0 0 0 0 100 A 100 100 0 0 0 100 200 A 100 100 0 0 0 200 100 A 100 100 0 0 0 100 0 z M 153.03125 60.732422 L 159.37305 60.732422 L 165.7168 60.734375 L 168.72656 60.953125 L 171.73633 61.171875 L 175.2832 61.613281 L 178.83203 62.056641 L 180.72266 62.443359 L 182.61523 62.830078 L 182.70703 62.923828 L 182.80078 63.015625 L 179.5332 63.623047 L 176.26758 64.228516 L 172.78125 65.050781 L 169.29688 65.875 L 165.57031 66.951172 L 161.8457 68.029297 L 157.76172 69.40625 L 153.67578 70.783203 L 150.23633 72.074219 L 146.79492 73.365234 L 142.86719 75.001953 L 138.9375 76.640625 L 134.37305 78.705078 L 129.81055 80.769531 L 122.94141 84.207031 L 116.07227 87.644531 L 112.29883 89.697266 L 108.52344 91.75 L 104.54688 94.013672 L 100.56836 96.279297 L 93.904297 100.25586 L 87.238281 104.23438 L 80.896484 108.20703 L 74.552734 112.17969 L 71.542969 114.00977 L 68.533203 115.8418 L 65.666016 117.74609 L 62.800781 119.65039 L 61.066406 120.9707 L 59.330078 122.29297 L 57.822266 123.70898 L 56.314453 125.12695 L 55.509766 126.36328 L 54.707031 127.59961 L 54.453125 128.66211 L 54.197266 129.72656 L 54.556641 130.96094 L 54.916016 132.19531 L 55.640625 133.63672 L 56.367188 135.07812 L 57.589844 137.19727 L 58.810547 139.31641 L 61.226562 142.97266 L 63.642578 146.62695 L 64.757812 148.18555 L 65.875 149.74414 L 65.6875 149.74414 L 65.501953 149.74414 L 63.146484 148.14648 L 60.792969 146.55078 L 58.503906 144.71289 L 56.216797 142.87695 L 53.617188 140.27539 L 51.015625 137.67578 L 49.417969 135.55469 L 47.820312 133.43359 L 46.964844 131.96875 L 46.111328 130.50195 L 44.691406 127.66797 L 43.273438 124.83398 L 42.390625 122.83008 L 41.505859 120.82617 L 39.996094 117.17188 L 38.484375 113.51562 L 36.679688 108.67773 L 34.876953 103.8418 L 34.019531 102.61328 L 33.162109 101.38672 L 33.996094 101.68164 L 34.828125 101.97461 L 36.416016 102.70898 L 38.001953 103.44336 L 40.259766 104.80469 L 42.517578 106.16602 L 46.439453 108.80469 L 50.361328 111.44141 L 51.921875 112.29688 L 53.482422 113.1543 L 54.388672 113.41992 L 55.296875 113.6875 L 58.259766 111.67969 L 61.222656 109.67188 L 65.416016 106.76758 L 69.607422 103.86523 L 72.724609 101.61133 L 75.84375 99.357422 L 80.464844 95.875 L 85.087891 92.392578 L 90.033203 88.541016 L 94.978516 84.689453 L 100.35352 80.488281 L 105.72852 76.285156 L 108.63086 74.136719 L 111.5332 71.986328 L 113.79102 70.470703 L 116.04883 68.957031 L 117.55469 68.037109 L 119.05859 67.117188 L 120.99414 66.173828 L 122.92969 65.230469 L 124.65039 64.708984 L 126.36914 64.1875 L 130.45508 63.431641 L 134.53906 62.675781 L 137.55078 62.25 L 140.56055 61.822266 L 142.54102 61.599609 L 144.52344 61.375 L 148.77734 61.052734 L 153.03125 60.732422 z M 184.17383 73.203125 L 184.54883 73.203125 L 184.92383 73.203125 L 184.70312 74.007812 L 184.48047 74.814453 L 183.77344 76.216797 L 183.06836 77.619141 L 181.62305 79.550781 L 180.17969 81.480469 L 179.84375 82.173828 L 179.50977 82.867188 L 177.34375 83.523438 L 175.17578 84.179688 L 168.29688 86.439453 L 161.41602 88.699219 L 156.57812 90.591797 L 151.74023 92.484375 L 145.61328 94.96875 L 139.48438 97.451172 L 134.86328 99.388672 L 130.24023 101.32617 L 124.75781 103.68945 L 119.27539 106.05469 L 114.97461 107.98438 L 110.67383 109.91406 L 107.83008 111.22461 L 104.98633 112.53516 L 95.144531 117.47852 L 85.302734 122.42383 L 80.304688 125.05859 L 75.304688 127.69336 L 75.304688 127.8457 L 75.304688 127.99805 L 78.154297 129.10938 L 81.003906 130.2207 L 84.443359 131.39258 L 87.882812 132.5625 L 90.785156 133.40234 L 93.689453 134.24023 L 95.945312 134.77734 L 98.203125 135.31641 L 100.35352 135.74023 L 102.50391 136.16406 L 105.38477 136.5293 L 108.26758 136.89453 L 112.37305 136.78906 L 116.47852 136.68359 L 118.14648 136.23438 L 119.8125 135.78711 L 122.12305 134.60156 L 124.43555 133.41406 L 126.36914 131.96484 L 128.30469 130.51562 L 130.64258 128.25 L 132.97852 125.98633 L 134.69336 123.94336 L 136.40625 121.90234 L 137.85742 119.9668 L 139.30859 118.03125 L 140.83398 115.77344 L 142.35938 113.51562 L 143.7832 111.15625 L 145.20898 108.79492 L 144.99805 108.72461 L 144.78711 108.6543 L 138.69531 110.40039 L 132.60547 112.14844 L 127.76758 113.54883 L 122.92969 114.95117 L 115.94141 116.99023 L 108.95312 119.0293 L 105.29883 120.10352 L 101.64453 121.17773 L 94.828125 123.20703 L 88.009766 125.23438 L 87.839844 125.2207 L 87.667969 125.20703 L 89.925781 124.12695 L 92.183594 123.04688 L 101.21289 118.8457 L 110.24414 114.64258 L 117.87695 111.21094 L 125.50977 107.77734 L 133.35742 104.38281 L 141.20508 100.98828 L 144.64453 99.585938 L 148.08594 98.181641 L 150.55859 97.175781 L 153.03125 96.171875 L 159.37305 93.697266 L 165.7168 91.222656 L 169.99609 89.626953 L 174.27539 88.033203 L 174.36523 88.121094 L 174.45508 88.210938 L 172.08594 92.908203 L 169.7168 97.605469 L 167.37109 101.68945 L 165.02344 105.77539 L 162.92773 109.10742 L 160.83008 112.44141 L 158.57031 115.77344 L 156.30859 119.10547 L 153.56641 122.76172 L 150.82422 126.41602 L 148.53906 129.14648 L 146.25195 131.87695 L 143.94336 134.30664 L 141.63477 136.73633 L 139.90625 138.35156 L 138.17773 139.9668 L 136.57422 141.27734 L 134.9707 142.58789 L 133.17578 143.80859 L 131.38281 145.0293 L 129.49414 145.97852 L 127.60547 146.92578 L 126.29492 147.36719 L 124.98633 147.80859 L 121.69922 147.78125 L 118.41406 147.75195 L 117.87695 147.66602 L 117.33984 147.58203 L 114.22266 147.14453 L 111.10352 146.70703 L 106.80469 145.84961 L 102.50391 144.99023 L 97.558594 143.72852 L 92.613281 142.4668 L 88.28125 141.16602 L 83.949219 139.86719 L 79.896484 138.44336 L 75.84375 137.02148 L 72.080078 135.51367 L 68.318359 134.00391 L 65.460938 132.63867 L 62.603516 131.27539 L 61.267578 130.46875 L 59.931641 129.66211 L 58.896484 128.92188 L 57.859375 128.18164 L 58.142578 127.9082 L 58.427734 127.63281 L 64.125 124.42969 L 69.822266 121.22656 L 73.585938 119.21094 L 77.347656 117.19727 L 80.787109 115.39453 L 84.228516 113.59375 L 91.96875 109.75977 L 99.708984 105.92578 L 105.08398 103.45703 L 110.45898 100.98828 L 116.17188 98.509766 L 121.88281 96.03125 L 128.90625 93.107422 L 135.92773 90.181641 L 142.51562 87.591797 L 149.10352 85.001953 L 152.57227 83.705078 L 156.04102 82.40625 L 161.63086 80.414062 L 167.2207 78.419922 L 170.87695 77.228516 L 174.53125 76.035156 L 177.00391 75.275391 L 179.47656 74.515625 L 181.82422 73.859375 L 184.17383 73.203125 z M 13.167969 85.828125 L 17.322266 92.363281 L 21.476562 98.896484 L 24.248047 103.08789 L 27.017578 107.28125 L 29.90625 111.47461 L 32.794922 115.66602 L 34.851562 118.46094 L 36.908203 121.25586 L 38.166016 122.81445 L 39.425781 124.375 L 39.251953 124.35352 L 39.076172 124.33203 L 38.109375 123.78906 L 37.140625 123.24805 L 34.345703 121.67773 L 31.550781 120.10742 L 29.03125 118.49609 L 26.509766 116.88281 L 24.408203 115.30664 L 22.306641 113.73047 L 20.263672 111.68359 L 18.220703 109.63672 L 17.539062 108.35156 L 16.857422 107.06641 L 16.208984 104.88281 L 15.5625 102.69922 L 15.021484 100.04492 L 14.480469 97.390625 L 14.152344 95.132812 L 13.826172 92.875 L 13.498047 90.080078 L 13.171875 87.285156 L 13.169922 86.556641 L 13.167969 85.828125 z " />
  </g>
</svg>
