<?xml version="1.0" encoding="UTF-8" standalone="no"?>
<svg
   xmlns:dc="http://purl.org/dc/elements/1.1/"
   xmlns:cc="http://creativecommons.org/ns#"
   xmlns:rdf="http://www.w3.org/1999/02/22-rdf-syntax-ns#"
   xmlns:svg="http://www.w3.org/2000/svg"
   xmlns="http://www.w3.org/2000/svg"
   xmlns:sodipodi="http://sodipodi.sourceforge.net/DTD/sodipodi-0.dtd"
   xmlns:inkscape="http://www.inkscape.org/namespaces/inkscape"
   version="1.1"
   id="svg511"
   width="200"
   height="200"
   viewBox="0 0 200 200"
   sodipodi:docname="asusctltray.svg"
   inkscape:version="1.0.1 (3bc2e813f5, 2020-09-07)"
   inkscape:export-filename="/home/leo/Dev/Python/asusctltray/asusctltray.png"
   inkscape:export-xdpi="122.88"
   inkscape:export-ydpi="122.88">
  <metadata
     id="metadata517">
    <rdf:RDF>
      <cc:Work
         rdf:about="">
        <dc:format>image/svg+xml</dc:format>
        <dc:type
           rdf:resource="http://purl.org/dc/dcmitype/StillImage" />
        <dc:title></dc:title>
      </cc:Work>
    </rdf:RDF>
  </metadata>
  <defs
     id="defs515" />
  <sodipodi:namedview
     pagecolor="#ffffff"
     bordercolor="#666666"
     borderopacity="1"
     objecttolerance="10"
     gridtolerance="10"
     guidetolerance="10"
     inkscape:pageopacity="0"
     inkscape:pageshadow="2"
     inkscape:window-width="1920"
     inkscape:window-height="1052"
     id="namedview513"
     showgrid="false"
     inkscape:zoom="3.8297591"
     inkscape:cx="104.91582"
     inkscape:cy="102.81116"
     inkscape:window-x="1920"
     inkscape:window-y="0"
     inkscape:window-maximized="1"
     inkscape:current-layer="g519" />
  <g
     inkscape:groupmode="layer"
     inkscape:label="Image"
     id="g519">
    <path
       style="fill:#f6f5f4;stroke-width:0.234715"
       d="m 64.017673,153.61307 h -0.203456 l -2.570422,-1.74403 -2.570437,-1.74402 -2.497515,-2.00491 -2.497516,-2.00489 -2.838755,-2.83877 -2.838755,-2.83876 -1.743883,-2.31502 -1.743883,-2.31503 -0.933708,-1.60075 -0.933709,-1.60077 -1.548082,-3.09338 -1.548095,-3.0934 -0.965354,-2.18768 -0.965354,-2.18768 -1.648668,-3.99015 -1.648668,-3.99015 -1.969785,-5.28107 -1.969771,-5.28108 -0.935643,-1.33954 -0.935643,-1.33955 0.909592,0.32092 0.909592,0.32092 1.731942,0.80124 1.731929,0.80123 2.464506,1.48677 2.464507,1.48678 4.281324,2.87914 4.281324,2.87914 1.703887,0.93454 1.703902,0.93455 0.990501,0.29173 0.990514,0.29173 3.234352,-2.19229 3.234351,-2.19229 4.576932,-3.16952 4.576933,-3.16953 3.40335,-2.45992 3.403363,-2.459896 5.046355,-3.80159 5.046368,-3.801577 5.398434,-4.20484 5.398433,-4.204827 5.867858,-4.58723 5.86786,-4.587244 3.16865,-2.346706 3.16864,-2.346705 2.4645,-1.653595 2.4645,-1.653594 1.643,-1.003485 1.643,-1.003484 2.11243,-1.030649 2.11244,-1.030649 1.87772,-0.568672 1.87771,-0.568672 4.45956,-0.825065 4.45958,-0.825065 3.28601,-0.465706 3.28599,-0.465706 2.16303,-0.244981 2.16302,-0.244967 4.64371,-0.350452 4.64368,-0.350453 6.92409,7.1e-4 6.92407,7.1e-4 3.28601,0.239094 3.28599,0.239095 3.87279,0.482642 3.8728,0.482656 2.06474,0.422747 2.06475,0.422761 0.10159,0.101588 0.10159,0.101589 -3.56581,0.661424 -3.56582,0.661423 -3.80525,0.898696 -3.80525,0.898695 -4.06653,1.175447 -4.06652,1.175447 -4.45958,1.503898 -4.45958,1.503884 -3.75543,1.409017 -3.75543,1.409017 -4.2887,1.787649 -4.2887,1.787649 -4.98252,2.25433 -4.98252,2.25433 -7.49826,3.751728 -7.49827,3.751729 -4.12011,2.241151 -4.12009,2.241165 -4.34222,2.472327 -4.34222,2.472327 -7.276149,4.341846 -7.276149,4.341849 -6.924069,4.3373 -6.924083,4.33729 -3.285995,1.99823 -3.286008,1.99822 -3.128644,2.07944 -3.128658,2.07946 -1.894164,1.4419 -1.89415,1.4419 -1.646525,1.54703 -1.646525,1.54703 -0.876861,1.34988 -0.876861,1.34987 -0.278408,1.16057 -0.278421,1.16057 0.391964,1.34833 0.391964,1.34831 0.79232,1.57334 0.79232,1.57333 1.333799,2.31347 1.333786,2.31348 2.63704,3.99015 2.637039,3.99014 1.218532,1.70168 1.218518,1.70169 h -0.203469 z m 61.145967,-2.1444 -3.58681,-0.032 -0.58678,-0.0923 -0.58679,-0.0923 -3.40336,-0.47727 -3.40335,-0.47727 -4.69429,-0.93791 -4.6943,-0.93792 -5.398421,-1.37685 -5.398437,-1.37686 -4.729594,-1.41945 -4.729579,-1.41944 -4.424285,-1.55296 -4.424272,-1.55296 -4.10751,-1.64699 -4.107497,-1.64698 -3.119431,-1.48966 -3.119431,-1.48966 -1.457501,-0.88059 -1.457501,-0.88059 -1.131347,-0.80751 -1.131347,-0.80748 0.309845,-0.30005 0.309845,-0.30005 6.219936,-3.49673 6.219937,-3.49671 4.107496,-2.19915 4.107511,-2.19916 3.75543,-1.96701 3.75543,-1.96703 8.449718,-4.18498 8.449715,-4.18498 5.86786,-2.69527 5.86787,-2.69527 6.23567,-2.705325 6.23568,-2.70534 7.66615,-3.192909 7.66615,-3.192895 7.19179,-2.827135 7.19178,-2.827136 3.78611,-1.416893 3.78613,-1.416907 6.10257,-2.176163 6.10258,-2.176148 3.99014,-1.301361 3.99016,-1.301347 2.6992,-0.829463 2.69922,-0.829448 2.56389,-0.717186 2.56389,-0.717172 h 0.4098 0.40981 l -0.24275,0.880173 -0.24272,0.880186 -0.77074,1.531146 -0.77073,1.531146 -1.57664,2.106929 -1.57664,2.106915 -0.36573,0.757293 -0.36573,0.757279 -2.36499,0.716615 -2.36501,0.716616 -7.51086,2.466969 -7.51086,2.466956 -5.28108,2.066085 -5.28106,2.066085 -6.68938,2.710823 -6.68936,2.710823 -5.04635,2.114639 -5.04637,2.11464 -5.98521,2.58104 -5.98522,2.58106 -4.69429,2.10629 -4.69429,2.10629 -3.10446,1.43054 -3.10445,1.43056 -10.743701,5.39805 -10.743693,5.39805 -5.457106,2.87658 -5.457119,2.8766 v 0.16634 0.16632 l 3.109969,1.21314 3.109968,1.21311 3.75543,1.2781 3.75543,1.27809 3.168653,0.9154 3.168639,0.91539 2.464505,0.58711 2.464495,0.58711 2.34715,0.46337 2.34714,0.46337 3.14555,0.39821 3.14555,0.39821 4.48266,-0.11494 4.48268,-0.11481 1.8192,-0.48944 1.81921,-0.48943 2.52301,-1.29497 2.52301,-1.29496 2.11244,-1.58261 2.11243,-1.58261 2.55141,-2.47174 2.5514,-2.47174 1.87059,-2.22978 1.87058,-2.2298 1.58437,-2.11243 1.58438,-2.11242 1.66453,-2.46451 1.66453,-2.4645 1.55603,-2.57706 1.55601,-2.57708 -0.23073,-0.077 -0.23073,-0.0769 -6.64904,1.90721 -6.64905,1.90721 -5.28107,1.53003 -5.28107,1.53002 -7.62823,2.2262 -7.62822,2.22621 -3.99014,1.1729 -3.99015,1.1729 -7.441337,2.21361 -7.441334,2.2136 -0.186881,-0.0148 -0.186881,-0.0148 2.464507,-1.17851 2.464492,-1.17851 9.858014,-4.58734 9.85801,-4.58735 8.33236,-3.74713 8.33236,-3.74714 8.56708,-3.70583 8.56707,-3.70584 3.75543,-1.532271 3.75543,-1.532286 2.69922,-1.097057 2.69921,-1.097071 6.92409,-2.701681 6.92407,-2.70168 4.67217,-1.740808 4.67219,-1.740821 0.0976,0.09755 0.0976,0.09755 -2.58633,5.12736 -2.58633,5.127374 -2.56118,4.459581 -2.56119,4.45956 -2.28909,3.63807 -2.28909,3.63808 -2.46796,3.63807 -2.46796,3.63808 -2.99317,3.99014 -2.99318,3.99015 -2.49605,2.98047 -2.49607,2.98048 -2.51998,2.65297 -2.51996,2.65297 -1.88718,1.76345 -1.88718,1.76344 -1.75089,1.43022 -1.7509,1.43023 -1.95777,1.33267 -1.95777,1.33266 -2.06172,1.03546 -2.06173,1.03545 -1.43022,0.48181 -1.43021,0.48181 z m -90.00532,-25.57539 -0.191125,-0.0235 -1.056213,-0.59162 -1.056213,-0.59164 -3.051284,-1.71353 -3.051284,-1.71355 -2.751597,-1.75999 -2.751612,-1.76002 -2.294756,-1.72053 -2.294757,-1.72053 -2.229795,-2.23483 -2.229782,-2.23483 -0.744155,-1.40325 -0.74417,-1.40324 -0.707083,-2.38344 L 9.297411,102.25535 8.7069179,99.357709 8.1164109,96.46006 7.7592099,93.995568 7.4020219,91.531061 7.0451965,88.479778 6.6883708,85.42848 l -0.00278,-0.794936 -0.00278,-0.794936 4.5359632,7.132228 4.535963,7.132228 3.024217,4.576936 3.024216,4.57693 3.1529,4.57694 3.152886,4.57693 2.245062,3.05128 2.245061,3.05129 1.374533,1.70168 1.374518,1.70168 z"
       id="path523" />
  </g>
</svg>
